# xmcd
#
# Track frame offsets: 
#        150
#        11282
#        23160
#        35357
#        45845
#        58550
#        71917
#        84245
#        99325
#        110047
#        123640
#        134145
#        145582
#        156252
#        168935
#
# Disc length: 2395 seconds
#
# Revision: 7
# Processed by: cddbd v1.5.1PL0 Copyright (c) Steve Scherf et al.
# Submitted via: ExactAudioCopy v0.95a5
#
DISCID=c109590f
DTITLE=Various Artist - Solid Gold Soul - 1967-1968 CD1
DYEAR=1967
DGENRE=Soul
TTITLE0=Aretha Franklin - Respect
TTITLE1=Sam and Dave - Soul Man
TTITLE2=Otis Redding - (Sittin' On) The Dock Of The Bay
TTITLE3=Arthur Conley - Sweet Soul Music
TTITLE4=Four Tops - If I Were A Carpenter
TTITLE5=Marvin Gaye and Kim Weston - It Takes Two
TTITLE6=Johnny Nash - Hold Me Tight
TTITLE7=Delfonics - La-La Means I Love You
TTITLE8=Wilson Pickett - Stagger Lee
TTITLE9=Jackie Wilson - (Your Love Keeps Lifting Me) Higher and Higher
TTITLE10=Nina Simone - Ain't Got No, I Got Life
TTITLE11=Young Rascals - Groovin'
TTITLE12=Brenton Wood - Gimme Little Sign
TTITLE13=The Supremes - The Happening
TTITLE14=Booker T and The MG's - Soul Limbo
EXTD=Ripped by Enagi
EXTT0=
EXTT1=
EXTT2=
EXTT3=
EXTT4=
EXTT5=
EXTT6=
EXTT7=
EXTT8=
EXTT9=
EXTT10=
EXTT11=
EXTT12=
EXTT13=
EXTT14=
PLAYORDER=
